<svg xmlns="http://www.w3.org/2000/svg" viewBox="0 0 469.336 469.336"><path d="M347.878 151.357c-4-4.003-11.083-4.003-15.083 0L129.909 354.414a10.7 10.7 0 00-2.99 9.258 10.693 10.693 0 005.76 7.84l16.656 8.34v28.049l-51.031 14.602-51.51-51.554 14.59-51.075h28.025l8.333 16.67a10.682 10.682 0 007.833 5.765c.573.094 1.146.135 1.708.135a10.64 10.64 0 007.542-3.128L317.711 136.26c2-2.002 3.125-4.712 3.125-7.548 0-2.836-1.125-5.546-3.125-7.548l-39.229-39.263a10.653 10.653 0 00-7.542-3.128h-.021a10.67 10.67 0 00-7.552 3.159L45.763 301.682c-.105.107-.1.27-.201.379-1.095 1.183-2.009 2.549-2.487 4.208l-18.521 64.857L.409 455.73a10.682 10.682 0 0010.261 13.606c.979 0 1.958-.136 2.927-.407l84.531-24.166 64.802-18.537c.195-.056.329-.203.52-.27.673-.232 1.262-.61 1.881-.976.608-.361 1.216-.682 1.73-1.146.138-.122.319-.167.452-.298l219.563-217.789a10.689 10.689 0 003.156-7.558 10.655 10.655 0 00-3.125-7.569l-39.229-39.263zM456.836 76.168l-64-64.054c-16.125-16.139-44.177-16.17-60.365.031l-39.073 39.461c-4.135 4.181-4.125 10.905.031 15.065l108.896 108.988a10.629 10.629 0 007.542 3.128c2.719 0 5.427-1.032 7.51-3.096l39.458-39.137c8.063-8.069 12.5-18.787 12.5-30.192s-4.436-22.125-12.499-30.194z"/></svg>