<svg xmlns="http://www.w3.org/2000/svg" viewBox="0 0 469.336 469.336"><path d="M456.836 76.168l-64-64.054c-16.125-16.139-44.177-16.17-60.365.031L45.763 301.682a10.733 10.733 0 00-2.688 4.587L.409 455.729a10.685 10.685 0 002.719 10.478 10.65 10.65 0 007.542 3.128c.979 0 1.969-.136 2.927-.407l149.333-42.703a10.714 10.714 0 004.583-2.69l289.323-286.983c8.063-8.069 12.5-18.787 12.5-30.192s-4.437-22.123-12.5-30.192z" fill="#303c42"/><g fill="#ffca28"><path d="M120.193 333.998l-14.712-29.434a10.671 10.671 0 00-9.542-5.896H78.857L285.925 89.737l39.264 39.264-204.996 204.997zM164.71 363.793l-29.434-14.712 204.996-204.996 39.264 39.264-208.93 207.068v-17.082c0-4.042-2.282-7.729-5.896-9.542z"/></g><path d="M347.522 27.585c8.063-8.063 22.104-8.063 30.167 0l64 64a21.187 21.187 0 016.25 15.083c0 5.698-2.219 11.052-6.219 15.052l-47.033 46.613-93.747-93.747 46.582-47.001z" fill="#d32f2f"/><path d="M112.565 361.594c-1.031-.516-4.255-3.74-4.771-4.771l-18.385-36.771H61.378l-23.741 83.107 29.753 28.262 81.947-23.41V379.98l-36.772-18.386z" fill="#f2f2f2"/><path fill="#666" d="M67.389 431.421l-29.752-28.262 2.458-8.608-13.894 48.637 48.636-13.895z"/><path d="M149.336 379.98l-36.771-18.385c-1.031-.516-1.579-1.579-2.385-2.385l-83.979 83.979 123.135-35.177V379.98zM409.753 59.636l-61.875 61.875 46.874 46.874 47.033-46.613c4-4 6.219-9.354 6.219-15.052a21.187 21.187 0 00-6.25-15.083l-32.001-32.001zM164.774 363.844l-29.434-14.712 204.996-204.996L379.6 183.4 170.67 390.468v-17.082c0-4.042-2.282-7.729-5.896-9.542z" opacity=".1"/><linearGradient id="a" gradientUnits="userSpaceOnUse" x1="-62.503" y1="615.201" x2="-49.501" y2="609.14" gradientTransform="matrix(21.3333 0 0 -21.3333 1430.081 13315.255)"><stop offset="0" stop-color="#fff" stop-opacity=".2"/><stop offset="1" stop-color="#fff" stop-opacity="0"/></linearGradient><path d="M456.836 76.168l-64-64.054c-16.125-16.139-44.177-16.17-60.365.031L45.763 301.682a10.733 10.733 0 00-2.688 4.587L.409 455.729a10.685 10.685 0 002.719 10.478 10.65 10.65 0 007.542 3.128c.979 0 1.969-.136 2.927-.407l149.333-42.703a10.714 10.714 0 004.583-2.69l289.323-286.983c8.063-8.069 12.5-18.787 12.5-30.192s-4.437-22.123-12.5-30.192z" fill="url(#a)"/></svg>