<svg xmlns="http://www.w3.org/2000/svg" viewBox="0 0 512 512"><path d="M503.916 320.674H8.084V29.642c0-11.906 9.651-21.558 21.558-21.558h452.716c11.906 0 21.558 9.651 21.558 21.558v291.032z" fill="#5d7eac"/><path d="M503.916 29.642v291.032h-32.337V29.642c0-11.906-9.651-21.558-21.558-21.558h32.337c11.906 0 21.558 9.652 21.558 21.558z" fill="#344966"/><path d="M180.547 320.674H51.2V8.084h129.347v312.59z" fill="#809ded"/><path d="M482.358 406.905H29.642c-11.906 0-21.558-9.651-21.558-21.558v-86.232h495.832v86.232c0 11.907-9.652 21.558-21.558 21.558z" fill="#687b40"/><path d="M503.916 299.116v86.232c0 11.906-9.651 21.558-21.558 21.558h-32.337c11.906 0 21.558-9.651 21.558-21.558v-86.232h32.337z" fill="#465123"/><path d="M158.989 353.01c0 11.906-9.651 21.558-21.558 21.558H61.979c-11.906 0-21.558-9.651-21.558-21.558 0-11.906 9.651-21.558 21.558-21.558h75.453c11.906.001 21.557 9.652 21.557 21.558z" fill="#aace80"/><path d="M234.442 353.01c0 11.906-9.651 21.558-21.558 21.558s-21.558-9.651-21.558-21.558c0-11.906 9.651-21.558 21.558-21.558s21.558 9.652 21.558 21.558zM153.6 51.2H78.147a5.39 5.39 0 00-5.389 5.389v32.337a5.39 5.39 0 005.389 5.389H153.6a5.39 5.39 0 005.389-5.389V56.589A5.39 5.39 0 00153.6 51.2z" fill="#f60"/><path d="M153.6 256H78.147a5.39 5.39 0 01-5.389-5.389v-32.337a5.39 5.39 0 015.389-5.389H153.6a5.39 5.39 0 015.389 5.389v32.337A5.39 5.39 0 01153.6 256z" fill="#5d7eac"/><path d="M471.579 353.01c0 11.906-9.651 21.558-21.558 21.558-11.906 0-21.558-9.651-21.558-21.558 0-11.906 9.651-21.558 21.558-21.558 11.906.001 21.558 9.652 21.558 21.558zM156.01 146.721l-37.726-18.863a5.386 5.386 0 00-4.82 0l-37.726 18.863a5.389 5.389 0 00-2.979 4.82v4.116a5.388 5.388 0 002.979 4.82l37.726 18.863a5.386 5.386 0 004.82 0l37.726-18.863a5.389 5.389 0 002.979-4.82v-4.116a5.389 5.389 0 00-2.979-4.82z" fill="#ffcb39"/><path d="M482.358 449.763v54.152H180.547v-54.152c0-19.04 12.49-35.826 30.726-41.297l77.063-23.119h86.232l77.063 23.119c18.237 5.471 30.727 22.257 30.727 41.297z" fill="#cedeec"/><path d="M482.358 449.763v54.152H460.8v-63.822c0-12.132-4.308-23.483-11.659-32.375l2.49.747c18.237 5.472 30.727 22.258 30.727 41.298z" fill="#abc5ff"/><path d="M428.463 212.884l-13.121 85.287c-3.618 23.522-19.632 42.445-40.774 50.556v68.956h-86.232v-68.957c-21.142-8.111-37.155-27.035-40.774-50.557l-13.121-85.286h194.022z" fill="#d9b166"/><path d="M329.863 353.01h-18.378c-31.921 0-59.068-23.289-63.921-54.839l-13.121-85.287h172.463l-13.121 85.287c-4.855 31.551-32.001 54.839-63.922 54.839z" fill="#f5d472"/><path d="M247.563 298.17l-13.121-85.286h194.021l-13.121 85.286a64.806 64.806 0 01-2.946 11.724h-22.584a10.78 10.78 0 01-7.622-3.157l-9.103-9.103c-4.81-4.81-12.817-4.017-16.591 1.643l-8.285 12.428a20.14 20.14 0 01-16.758 8.969 20.137 20.137 0 01-16.758-8.969l-8.286-12.428c-3.773-5.66-11.78-6.452-16.591-1.643l-9.104 9.104a10.78 10.78 0 01-7.622 3.157h-22.584a64.96 64.96 0 01-2.945-11.725z" fill="#bc8e50"/><path d="M428.463 212.884l-13.121 85.286a64.806 64.806 0 01-2.946 11.724h-21.558a64.806 64.806 0 002.946-11.724l13.121-85.286h21.558z" fill="#963"/><path d="M250.611 396.665l37.726-11.318h86.232l37.726 11.318v107.251H250.611V396.665z" fill="#809ded"/><path d="M412.295 396.665v107.251H250.611v-16.168h134.737c5.953 0 10.779-4.826 10.779-10.779v-85.154l16.168 4.85z" fill="#5d7eac"/><path d="M439.242 219.199c0 8.418-6.825 15.244-15.244 15.244H238.907c-8.418 0-15.244-6.825-15.244-15.244 0-4.043 1.606-7.92 4.465-10.779l17.093-17.093 11.731-35.192c5.869-17.606 22.345-29.481 40.903-29.481h1.261c0-5.953 4.826-10.779 10.779-10.779h43.116c5.953 0 10.779 4.826 10.779 10.779h1.261c18.558 0 35.035 11.875 40.903 29.481l11.731 35.192 17.093 17.093a15.243 15.243 0 014.464 10.779z" fill="#ffcb39"/><path d="M417.684 191.326v21.558H288.337c-5.953 0-10.779-4.826-10.779-10.779s4.826-10.779 10.779-10.779h10.779v-64.674c0-5.953 4.826-10.779 10.779-10.779h43.116c5.953 0 10.779 4.826 10.779 10.779v64.674h53.894z" fill="#ffb933"/><path d="M439.242 219.199c0 8.419-6.825 15.244-15.244 15.244H402.44c8.418 0 15.244-6.825 15.244-15.244 0-4.043-1.606-7.92-4.465-10.779l-17.093-17.093-11.731-35.192c-3.574-10.724-11.088-19.314-20.606-24.397v59.589h-21.558v-64.674c0-5.953-4.826-10.779-10.779-10.779h21.558c5.953 0 10.779 4.826 10.779 10.779h1.261c18.558 0 35.035 11.875 40.903 29.481l11.731 35.192 17.093 17.093a15.244 15.244 0 014.465 10.78z" fill="#ff9600"/><path d="M169.768 414.989H29.642C13.297 414.989 0 401.691 0 385.347V29.642C0 13.298 13.297 0 29.642 0h43.116c4.465 0 8.084 3.618 8.084 8.084s-3.62 8.084-8.084 8.084H29.642c-7.43 0-13.474 6.044-13.474 13.474v261.389h196.716c4.465 0 8.084 3.618 8.084 8.084s-3.62 8.084-8.084 8.084H16.168v78.147c0 7.43 6.044 13.474 13.474 13.474h140.126c4.465 0 8.084 3.618 8.084 8.084s-3.619 8.085-8.084 8.085zm-2.694-358.4v8.084h272.168a8.083 8.083 0 018.084 8.084v86.232a8.084 8.084 0 01-8.084 8.084 8.083 8.083 0 01-8.084-8.084V80.842H167.074v8.084c0 7.43-6.044 13.474-13.474 13.474h-29.642v19.257l35.668 17.834a13.397 13.397 0 017.448 12.051v4.118c0 5.137-2.854 9.756-7.45 12.052l-35.665 17.833V204.8H153.6c7.43 0 13.474 6.044 13.474 13.474v8.084h24.253c4.465 0 8.084 3.618 8.084 8.084s-3.62 8.084-8.084 8.084h-24.253v8.084c0 7.43-6.044 13.474-13.474 13.474H78.147c-7.43 0-13.474-6.044-13.474-13.474v-32.337c0-7.43 6.044-13.474 13.474-13.474h29.642v-19.257L72.122 167.71a13.397 13.397 0 01-7.448-12.051v-4.118c0-5.137 2.854-9.756 7.45-12.052l35.665-17.833V102.4H78.147c-7.43 0-13.474-6.044-13.474-13.474V56.589c0-7.43 6.044-13.474 13.474-13.474H153.6c7.43.001 13.474 6.045 13.474 13.474zM80.842 220.968v26.947h70.063v-26.947H80.842zm35.032-85.276l-35.032 17.516v.786l35.032 17.516 35.032-17.516v-.786l-35.032-17.516zm35.031-76.408H80.842v26.947h70.064V59.284zM482.358 0H105.095c-4.465 0-8.084 3.618-8.084 8.084s3.62 8.084 8.084 8.084h377.263c7.43 0 13.474 6.044 13.474 13.474v261.389h-45.811c-4.465 0-8.084 3.618-8.084 8.084s3.62 8.084 8.084 8.084h45.811v78.147c0 4.796-2.584 9.271-6.742 11.676a8.085 8.085 0 008.096 13.995c9.137-5.286 14.815-15.123 14.815-25.671V29.642C512 13.298 498.703 0 482.358 0zm8.084 449.764v43.372c0 10.401-8.463 18.863-18.863 18.863h-59.284a8.083 8.083 0 01-8.084-8.084v-32.337a8.084 8.084 0 018.084-8.084 8.083 8.083 0 018.084 8.084v24.253h51.2a2.698 2.698 0 002.695-2.695v-43.372c0-15.59-10.033-29.075-24.965-33.555l-75.927-22.778h-83.859l-75.926 22.778c-14.932 4.48-24.965 17.965-24.965 33.555v43.372a2.698 2.698 0 002.695 2.695h51.2v-24.253a8.084 8.084 0 018.084-8.084 8.083 8.083 0 018.084 8.084v24.253h126.653c4.465 0 8.084 3.618 8.084 8.084s-3.62 8.084-8.084 8.084H191.326c-10.401 0-18.863-8.463-18.863-18.863v-43.372c0-22.786 14.664-42.494 36.488-49.041l71.302-21.391v-25.285a72.78 72.78 0 01-16.143-10.489 72.803 72.803 0 01-24.537-44.158l-8.985-58.407c-8.768-3.358-15.009-11.862-15.009-21.796 0-6.231 2.426-12.09 6.833-16.496l15.744-15.743 11.127-33.382a51.135 51.135 0 0143.452-34.755c2.98-6.503 9.551-11.032 17.16-11.032h43.116c7.609 0 14.181 4.529 17.16 11.032a51.135 51.135 0 0143.452 34.755l11.127 33.382 15.744 15.743v.001a23.178 23.178 0 016.832 16.495c0 9.934-6.241 18.437-15.009 21.796l-8.985 58.407a72.8 72.8 0 01-24.537 44.158 72.673 72.673 0 01-16.143 10.489v25.285l71.302 21.391c21.824 6.548 36.488 26.256 36.488 49.041zm-66.443-223.406c3.948 0 7.159-3.211 7.159-7.16 0-1.884-.764-3.73-2.098-5.063l-17.092-17.091a8.085 8.085 0 01-1.953-3.16l-11.731-35.192a34.98 34.98 0 00-26.409-23.287v34.364a8.084 8.084 0 01-8.084 8.084 8.083 8.083 0 01-8.084-8.084v-43.116a2.698 2.698 0 00-2.695-2.695h-43.116a2.698 2.698 0 00-2.695 2.695v43.116c0 4.466-3.62 8.084-8.084 8.084s-8.084-3.618-8.084-8.084v-34.365a34.98 34.98 0 00-26.411 23.287l-11.731 35.192a8.1 8.1 0 01-1.953 3.16l-17.093 17.092a7.113 7.113 0 00-2.097 5.062c0 3.948 3.211 7.16 7.159 7.16h185.091v.001zM343.336 353.01a8.084 8.084 0 018.084-8.084c28.132 0 51.654-20.181 55.932-47.986l8.371-54.414H247.182l8.372 54.414c4.277 27.804 27.8 47.986 55.932 47.986h9.189a8.083 8.083 0 018.084 8.084 8.084 8.084 0 01-8.084 8.084h-9.189a72.733 72.733 0 01-15.064-1.578v17.746h70.063v-17.746a72.74 72.74 0 01-15.064 1.578 8.083 8.083 0 01-8.085-8.084zm106.685-29.642c16.345 0 29.642 13.298 29.642 29.642s-13.297 29.642-29.642 29.642-29.642-13.298-29.642-29.642 13.297-29.642 29.642-29.642zm-13.474 29.642c0 7.43 6.044 13.474 13.474 13.474s13.474-6.044 13.474-13.474-6.044-13.474-13.474-13.474-13.474 6.045-13.474 13.474zm-299.115-29.642c16.345 0 29.642 13.298 29.642 29.642s-13.297 29.642-29.642 29.642H61.979c-16.345 0-29.642-13.298-29.642-29.642s13.297-29.642 29.642-29.642h75.453zm0 16.169H61.979c-7.43 0-13.474 6.044-13.474 13.474s6.044 13.474 13.474 13.474h75.453c7.43 0 13.474-6.044 13.474-13.474s-6.044-13.474-13.474-13.474zm75.452-16.169c16.345 0 29.642 13.298 29.642 29.642s-13.297 29.642-29.642 29.642-29.642-13.298-29.642-29.642 13.297-29.642 29.642-29.642zm0 16.169c-7.43 0-13.474 6.044-13.474 13.474s6.044 13.474 13.474 13.474 13.474-6.044 13.474-13.474-6.044-13.474-13.474-13.474z"/></svg>