<svg xmlns="http://www.w3.org/2000/svg" viewBox="0 0 512 512"><path d="M482.358 0H105.095a8.084 8.084 0 000 16.168h377.263c7.43 0 13.474 6.044 13.474 13.474v261.389h-45.81a8.084 8.084 0 00-8.084 8.084 8.084 8.084 0 008.084 8.084h45.81v78.147c0 4.796-2.584 9.271-6.742 11.676a8.085 8.085 0 008.096 13.995c9.137-5.286 14.815-15.123 14.815-25.671V29.642C512 13.298 498.703 0 482.358 0z"/><path d="M420.379 353.01c0 16.344 13.297 29.642 29.642 29.642s29.642-13.298 29.642-29.642-13.297-29.642-29.642-29.642-29.642 13.298-29.642 29.642zm29.642-13.473c7.43 0 13.474 6.044 13.474 13.474s-6.044 13.474-13.474 13.474-13.474-6.044-13.474-13.474 6.044-13.474 13.474-13.474zM177.853 406.905a8.084 8.084 0 00-8.084-8.084H29.642c-7.43 0-13.474-6.044-13.474-13.474V307.2h196.716a8.083 8.083 0 008.084-8.084 8.084 8.084 0 00-8.084-8.084H16.168V29.642c0-7.43 6.044-13.474 13.474-13.474h43.116c4.465 0 8.084-3.619 8.084-8.084S77.223 0 72.758 0H29.642C13.297 0 0 13.298 0 29.642v355.705c0 16.344 13.297 29.642 29.642 29.642h140.126a8.084 8.084 0 008.085-8.084z"/><path d="M453.953 400.724l-71.302-21.391v-25.285a72.673 72.673 0 0016.143-10.489 72.799 72.799 0 0024.537-44.158l8.985-58.407c8.768-3.359 15.009-11.862 15.009-21.796a23.174 23.174 0 00-6.832-16.495v-.001l-15.744-15.743-11.127-33.382a51.135 51.135 0 00-43.452-34.755c-2.979-6.503-9.551-11.032-17.16-11.032h-43.116c-7.609 0-14.18 4.529-17.16 11.032a51.135 51.135 0 00-43.452 34.755l-11.127 33.382-15.744 15.743a23.177 23.177 0 00-6.833 16.496c0 9.934 6.241 18.438 15.009 21.796l8.985 58.407a72.806 72.806 0 0024.537 44.158 72.78 72.78 0 0016.143 10.489v25.285l-71.302 21.391c-21.824 6.547-36.488 26.255-36.488 49.041v43.372c0 10.401 8.463 18.863 18.863 18.863h194.021a8.083 8.083 0 008.084-8.084 8.084 8.084 0 00-8.084-8.084H258.695v-24.253c0-4.466-3.62-8.084-8.084-8.084s-8.084 3.618-8.084 8.084v24.253h-51.2a2.698 2.698 0 01-2.695-2.695v-43.372c0-15.59 10.033-29.075 24.965-33.555l75.926-22.778h83.859l75.927 22.778c14.932 4.48 24.965 17.965 24.965 33.555v43.372a2.698 2.698 0 01-2.695 2.695h-51.2v-24.253c0-4.466-3.62-8.084-8.084-8.084s-8.084 3.618-8.084 8.084v32.337a8.084 8.084 0 008.084 8.084h59.284c10.401 0 18.863-8.463 18.863-18.863v-43.372c0-22.786-14.664-42.494-36.489-49.041zM238.908 226.357c-3.948 0-7.159-3.212-7.159-7.16 0-1.912.745-3.71 2.096-5.062l17.093-17.092a8.088 8.088 0 001.953-3.16l11.731-35.192a34.98 34.98 0 0126.411-23.287v34.365a8.084 8.084 0 008.084 8.084 8.084 8.084 0 008.084-8.084v-43.116a2.698 2.698 0 012.695-2.695h43.116a2.698 2.698 0 012.695 2.695v43.116a8.084 8.084 0 0016.168 0v-34.364a34.978 34.978 0 0126.409 23.287l11.731 35.192a8.085 8.085 0 001.953 3.16l17.092 17.091a7.212 7.212 0 012.098 5.063c0 3.949-3.211 7.16-7.159 7.16v-.001H238.908zm112.514 134.738a72.74 72.74 0 0015.064-1.578v17.746h-70.063v-17.746a72.726 72.726 0 0015.064 1.578h9.189a8.083 8.083 0 008.084-8.084 8.084 8.084 0 00-8.084-8.084h-9.189c-28.132 0-51.655-20.181-55.932-47.986l-8.372-54.414h168.542l-8.371 54.414c-4.278 27.804-27.8 47.986-55.932 47.986a8.083 8.083 0 00-8.084 8.084 8.082 8.082 0 008.084 8.084zM61.979 323.368c-16.345 0-29.642 13.298-29.642 29.642s13.297 29.642 29.642 29.642h75.453c16.345 0 29.642-13.298 29.642-29.642s-13.297-29.642-29.642-29.642H61.979zm88.926 29.642c0 7.43-6.044 13.474-13.474 13.474H61.979c-7.43 0-13.474-6.044-13.474-13.474s6.044-13.474 13.474-13.474h75.453c7.429.001 13.473 6.045 13.473 13.474z"/><path d="M153.6 43.116H78.147c-7.43 0-13.474 6.044-13.474 13.474v32.337c0 7.43 6.044 13.474 13.474 13.474h29.642v19.257l-35.665 17.833a13.398 13.398 0 00-7.45 12.052v4.118c0 5.137 2.854 9.756 7.448 12.051l35.668 17.834V204.8H78.147c-7.43 0-13.474 6.044-13.474 13.474v32.337c0 7.43 6.044 13.474 13.474 13.474H153.6c7.43 0 13.474-6.044 13.474-13.474v-8.084h24.253a8.083 8.083 0 008.084-8.084 8.084 8.084 0 00-8.084-8.084h-24.253v-8.084c0-7.43-6.044-13.474-13.474-13.474h-29.642v-19.257l35.665-17.833a13.398 13.398 0 007.45-12.052v-4.118c0-5.137-2.854-9.756-7.448-12.051l-35.668-17.834V102.4H153.6c7.43 0 13.474-6.044 13.474-13.474v-8.084h264.084v78.147a8.084 8.084 0 008.084 8.084 8.083 8.083 0 008.084-8.084V72.758a8.084 8.084 0 00-8.084-8.084H167.074V56.59c0-7.43-6.044-13.474-13.474-13.474zm-2.695 177.852v26.947H80.842v-26.947h70.063zm0-67.76v.786l-35.032 17.516-35.032-17.516v-.786l35.032-17.516 35.032 17.516zm0-66.976H80.842V59.284h70.063v26.948zM183.242 353.01c0 16.344 13.297 29.642 29.642 29.642s29.642-13.298 29.642-29.642-13.297-29.642-29.642-29.642-29.642 13.298-29.642 29.642zm43.116 0c0 7.43-6.044 13.474-13.474 13.474s-13.474-6.044-13.474-13.474 6.044-13.474 13.474-13.474 13.474 6.045 13.474 13.474z"/></svg>